<svg
  width="100%"
  height="100%"
  viewBox="0 0 321 154"
  fill="none"
  xmlns="http://www.w3.org/2000/svg"
>
  <path
    d="M208.233 14.2251C164.343 36.5891 119.336 74.8874 119.336 117.099C119.336 144.216 137.786 154 153.72 154C177.762 154 206.835 131.916 206.835 105.358C206.835 87.4672 193.416 76.2852 176.364 76.2852C167.418 76.2852 157.634 79.3602 148.968 86.0694"
    stroke="white"
    stroke-width="10"
    stroke-linecap="round"
  />
  <path
    d="M269.454 5L222.21 154"
    stroke="white"
    stroke-width="10"
    stroke-linecap="round"
  />
  <path
    d="M245.133 40.2233C241.779 43.0188 237.585 44.6961 233.672 44.6961C227.521 44.6961 223.328 40.7824 223.328 34.0732C223.328 21.4934 239.263 14.2251 252.961 14.2251C270.293 14.2251 290.42 25.4071 309.15 25.4071C320.612 25.4071 335.148 20.9343 341.298 15.3433"
    stroke="white"
    stroke-width="10"
    stroke-linecap="round"
  />
  <path
    d="M230.597 95.8537C243.456 87.1876 257.992 83.833 272.529 83.833C281.754 83.833 290.979 85.2308 299.645 87.4672"
    stroke="white"
    stroke-width="10"
    stroke-linecap="round"
  />
  <path
    d="M39.9437 29.6004C49.4484 21.4934 64.5441 14.2251 80.758 14.2251C102.563 14.2251 110.39 33.5141 110.39 47.212C110.39 94.7355 53.6417 154 18.9775 154C13.1069 154 5 150.645 5 144.775C5 140.302 9.75235 131.916 21.773 131.916C40.7824 131.916 58.6735 153.441 80.1989 153.441C88.5854 153.441 97.531 150.086 102.842 145.334"
    stroke="white"
    stroke-width="10"
    stroke-linecap="round"
  />
</svg>
