<svg
  width="100%"
  height="100%"
  viewBox="0 0 501 318"
  fill="none"
  xmlns="http://www.w3.org/2000/svg"
>
  <path
    fill-rule="evenodd"
    clip-rule="evenodd"
    d="M382.009 0C341.56 0 315.55 17.3474 299.249 36.7973C283.072 56.0988 276.537 77.3433 274.485 85.4057C273.893 87.7307 275.3 90.0945 277.628 90.6856C279.955 91.2767 282.322 89.8711 282.914 87.5462C284.815 80.0772 290.93 60.2555 305.918 42.3737C320.78 24.6402 344.449 8.68709 382.009 8.68709C415.375 8.68709 442.845 21.2493 462.008 42.2788C481.204 63.3454 492.303 93.183 492.303 128.069C492.303 154.146 486.125 171.159 477.287 182.846C471.887 189.986 465.362 195.317 458.291 199.543C457.281 200.147 456.259 200.728 455.229 201.289C452.032 203.029 448.744 204.571 445.415 205.979C444.987 206.159 444.56 206.338 444.131 206.514C438.617 208.783 433.102 210.669 427.722 212.509L427.717 212.51C427.042 212.741 426.369 212.972 425.698 213.202C419.761 215.239 413.955 217.29 408.911 219.748C403.867 222.206 399.255 225.224 395.907 229.379C392.472 233.641 390.574 238.843 390.574 245.213C390.574 254.419 394.578 260.653 399.868 264.439C404.945 268.073 410.96 269.3 415.216 269.3C425.125 269.3 432.514 263.047 438.004 254.359C443.486 245.686 447.614 233.808 450.957 220.648C451.66 217.882 452.333 215.038 452.98 212.133C464.244 206.916 475.461 199.673 484.226 188.082C494.462 174.548 501 155.562 501 128.069C501 91.3517 489.302 59.3268 468.44 36.4314C447.543 13.4991 417.693 0 382.009 0ZM446.221 202.043C449.588 200.549 452.874 198.908 456.032 197.055C458.305 184.811 460.263 172.01 462.152 159.665L462.152 159.662L462.152 159.66L462.153 159.658L462.153 159.656L462.153 159.654L462.154 159.652C463.492 150.905 464.795 142.387 466.15 134.459C466.195 134.194 466.216 133.93 466.212 133.669C466.247 131.707 464.937 129.903 462.95 129.391C460.625 128.792 458.253 130.189 457.653 132.512C454.534 144.585 449.173 160.981 441.906 174.258C438.269 180.902 434.269 186.551 430.004 190.489C425.752 194.416 421.535 196.381 417.324 196.381C413.847 196.381 411.432 195.103 409.746 192.836C407.931 190.395 406.651 186.366 406.651 180.454C406.651 174.168 408.119 166.369 410.176 158.219C411.665 152.315 413.401 146.452 415.01 141.016L415.012 141.009C415.619 138.96 416.208 136.971 416.759 135.064C416.887 134.618 416.941 134.168 416.928 133.728C416.985 131.867 415.83 130.109 413.973 129.482C411.697 128.714 409.23 129.934 408.461 132.206C402.123 150.939 393.573 167.241 384.374 178.767C374.998 190.514 365.711 196.381 358.027 196.381C354.268 196.381 350.081 195.056 346.715 190.794C346.016 189.91 345.337 188.879 344.697 187.681C351.134 181.384 357.788 173.736 364.039 165.427C372.205 154.574 379.778 142.471 385.328 130.597C390.842 118.799 394.528 106.873 394.528 96.4793C394.528 91.0471 393.542 85.291 390.971 80.7269C388.291 75.9679 383.759 72.3924 377.265 72.3924C370.307 72.3924 364.046 76.4701 358.833 82.0651C353.55 87.736 348.796 95.5328 344.808 104.329C336.834 121.92 331.54 144.377 331.54 164.133C331.54 172.756 332.56 179.781 334.376 185.438C335.392 188.603 336.658 191.34 338.135 193.689C338.263 193.893 338.393 194.094 338.524 194.292C338.962 194.952 339.416 195.58 339.887 196.176C345.152 202.839 352.034 205.068 358.027 205.068C369.845 205.068 381.377 196.457 391.174 184.182C393.617 181.122 396 177.776 398.302 174.182C398.078 176.344 397.954 178.445 397.954 180.454C397.954 187.442 399.441 193.548 402.765 198.017C406.218 202.66 411.314 205.068 417.324 205.068C424.446 205.068 430.672 201.702 435.908 196.868C441.131 192.045 445.663 185.502 449.537 178.425C449.966 177.64 450.389 176.846 450.806 176.044C449.394 184.877 447.898 193.647 446.221 202.043ZM430.538 220.728C434.544 219.358 438.785 217.908 443.086 216.27C442.902 217.022 442.716 217.769 442.528 218.511C439.25 231.411 435.389 242.223 430.65 249.722C425.92 257.207 420.856 260.613 415.216 260.613C412.357 260.613 408.225 259.734 404.934 257.378C401.857 255.176 399.271 251.538 399.271 245.213C399.271 240.724 400.553 237.468 402.682 234.826C404.896 232.078 408.232 229.744 412.725 227.555C417.219 225.365 422.538 223.471 428.523 221.418C429.188 221.19 429.859 220.96 430.538 220.728ZM331.683 187.759C332.749 190.773 334.052 193.446 335.572 195.796C332.654 198.112 329.807 200.078 327.104 201.59C323.476 203.619 319.688 205.068 316.123 205.068C312.152 205.068 308.964 203.27 307 200.131C305.224 197.293 304.659 193.711 304.659 190.195C304.659 184.873 306.045 178.005 307.377 171.405C307.466 170.965 307.555 170.526 307.643 170.089C309.111 162.791 310.457 155.725 310.457 149.918C310.457 145.506 309.689 142.595 308.347 140.835C307.197 139.325 305.058 137.94 300.31 137.94C291.769 137.94 284.641 142.086 278.299 152.192C272.601 161.271 267.782 174.835 263.585 193.53L262.145 200.78C262.08 201.103 261.982 201.411 261.853 201.701C261.327 203.982 259.076 205.446 256.763 204.984C254.408 204.513 252.881 202.225 253.352 199.872C253.913 197.071 254.487 194.353 255.078 191.72L256.938 182.354C255.265 184.431 253.469 186.493 251.563 188.479C243.26 197.129 232.138 205.068 219.402 205.068C204.479 205.068 195.151 196.38 190.745 185.912L190.741 185.914C189.401 182.717 188.515 179.347 188.046 175.979C187.777 174.044 187.644 172.103 187.644 170.188C187.644 160.278 191.125 150.207 196.967 142.547C202.813 134.883 211.358 129.253 221.51 129.253C233.786 129.253 242.462 137.658 242.462 147.549C242.462 151.987 240.601 156.077 237.865 159.658C235.129 163.24 231.34 166.556 226.984 169.567C219.314 174.869 209.417 179.546 199.045 183.217C202.442 190.798 209.038 196.381 219.402 196.381C228.539 196.381 237.513 190.565 245.286 182.467C252.951 174.48 258.736 165.007 261.475 159.347C261.493 159.31 261.511 159.274 261.53 159.238L266.791 132.751C267.259 130.398 269.547 128.869 271.903 129.336C274.259 129.803 275.789 132.089 275.322 134.442L273.446 143.887C280.541 134.327 289.364 129.253 300.31 129.253C306.895 129.253 312.004 131.291 315.267 135.572C318.34 139.604 319.154 144.853 319.154 149.918C319.154 156.747 317.6 164.686 316.169 171.8C316.116 172.064 316.064 172.327 316.011 172.588L316.002 172.633C314.579 179.698 313.356 185.776 313.356 190.195C313.356 192.996 313.845 194.679 314.375 195.527C314.606 195.897 314.817 196.065 314.988 196.158C315.162 196.254 315.495 196.381 316.123 196.381C317.499 196.381 319.732 195.757 322.856 194.01C325.487 192.538 328.464 190.433 331.683 187.759ZM341.543 178.525C346.703 173.189 352.009 166.956 357.087 160.207C364.965 149.737 372.2 138.148 377.447 126.922C382.73 115.621 385.831 105.039 385.831 96.4793C385.831 91.9082 384.972 87.7926 383.391 84.9858C381.92 82.374 379.995 81.0795 377.265 81.0795C373.814 81.0795 369.698 83.1551 365.2 87.983C360.773 92.7349 356.485 99.6305 352.731 107.912C345.222 124.477 340.237 145.719 340.237 164.133C340.237 169.886 340.728 174.627 341.543 178.525ZM123.471 76.3411C125.873 76.3411 127.82 78.2857 127.82 80.6846C127.82 97.9687 119.838 111.854 110.03 120.415V120.414C106.814 123.219 103.343 125.505 99.8239 127.144L99.8239 127.143C95.8415 128.996 91.7575 130.043 87.8924 130.043C84.3718 130.043 80.2717 129.182 76.905 127.014C73.3777 124.742 70.6302 120.968 70.6302 115.696C70.6302 104.999 78.0339 95.8212 87.8924 95.8212C95.8934 95.8212 102.716 101.504 106.149 112.165C113.396 105.014 119.123 94.1049 119.123 80.6846C119.123 78.2857 121.069 76.3411 123.471 76.3411ZM99.8819 130.719C102.825 129.477 105.717 127.828 108.47 125.848C108.543 127.238 108.581 128.679 108.581 130.175C108.581 131.158 108.565 132.145 108.532 133.136C109.029 132.844 109.527 132.565 110.024 132.299C113.133 130.641 116.73 129.253 120.045 129.253C122.555 129.253 124.914 130.045 126.671 131.865C127.104 132.313 127.468 132.79 127.774 133.285C125.21 135.088 122.791 137.234 120.591 139.735C120.612 139.328 120.604 138.955 120.566 138.623C120.528 138.283 120.469 138.078 120.427 137.966C120.346 137.953 120.223 137.94 120.045 137.94C118.879 137.94 116.811 138.527 114.121 139.962C111.872 141.162 109.535 142.769 107.467 144.51C105.504 157.219 100.947 169.829 93.8211 180.241C83.9383 194.679 68.9389 205.068 49.1512 205.068C33.5903 205.068 21.165 198.541 12.7134 188.243C4.33138 178.03 0 164.306 0 149.918C0 113.467 28.1353 85.8179 59.9566 85.8179C62.3582 85.8179 64.3051 87.7625 64.3051 90.1614C64.3051 92.5603 62.3582 94.505 59.9566 94.505C33.2708 94.505 8.697 117.926 8.697 149.918C8.697 162.644 12.5355 174.324 19.4392 182.735C26.2731 191.062 36.2493 196.381 49.1512 196.381C65.4693 196.381 78.0104 187.948 86.6417 175.338C95.2364 162.781 99.7782 146.267 99.8819 130.719ZM98.713 117.923C96.3346 106.996 91.0687 104.508 87.8924 104.508C84.0466 104.508 79.3272 108.492 79.3272 115.696C79.3272 117.532 80.1375 118.759 81.6177 119.713C83.2583 120.769 85.6151 121.356 87.8924 121.356C90.9318 121.356 94.7339 120.253 98.713 117.923ZM100.208 218.44C101.418 200.539 106.07 179.783 115.099 155.744C115.108 155.716 115.117 155.689 115.126 155.662C115.136 155.632 115.146 155.603 115.156 155.573C115.418 154.835 115.696 154.113 115.987 153.408C116.144 153.028 116.305 152.652 116.47 152.282C119.527 145.415 123.95 140.179 129.014 136.449C135.656 131.557 143.401 129.253 150.616 129.253C170.031 129.253 181.319 145.619 181.319 163.08C181.319 169.319 179.91 175.15 177.555 180.355C180.054 179.805 182.584 179.178 185.117 178.484C185.643 181.303 186.447 184.113 187.553 186.824C182.065 188.334 176.569 189.545 171.295 190.395C170.583 191.261 169.846 192.094 169.086 192.892C162.093 200.235 152.788 205.068 144.028 205.068C134.837 205.068 127.491 201.76 122.211 196.381C120.53 194.668 120.557 191.918 122.272 190.238C123.986 188.559 126.74 188.586 128.421 190.299C132.005 193.95 137.085 196.381 144.028 196.381C149.762 196.381 156.929 193.053 162.784 186.905C168.56 180.84 172.622 172.464 172.622 163.08C172.622 148.952 163.881 137.94 150.616 137.94C140.904 137.94 129.529 143.497 124.061 156.638C114.383 181.87 109.741 203.073 108.775 220.836C106.348 219.126 103.506 218.433 100.681 218.433C100.623 218.433 100.565 218.434 100.508 218.434C100.474 218.435 100.441 218.435 100.407 218.436C100.341 218.437 100.274 218.438 100.208 218.44ZM222.035 162.424C215.287 167.089 206.334 171.381 196.668 174.841C196.45 173.29 196.341 171.73 196.341 170.188C196.341 162.197 199.186 153.973 203.885 147.812C208.581 141.656 214.795 137.94 221.51 137.94C229.791 137.94 233.765 143.225 233.765 147.549C233.765 149.489 232.952 151.769 230.951 154.389C228.949 157.009 225.936 159.727 222.035 162.424ZM154.89 100.133H159.831C162.581 100.133 165.027 99.7334 167.169 98.9348C169.312 98.1363 170.991 96.8587 172.206 95.102C173.453 93.3453 174.076 91.0296 174.076 88.155C174.076 85.2803 173.453 82.9806 172.206 81.2558C170.959 79.4991 169.264 78.2215 167.121 77.423C164.979 76.6245 162.549 76.2252 159.831 76.2252H154.89H149.758H146.257V108.325H154.89V100.133ZM154.89 92.4669H159.927C161.046 92.4669 161.973 92.3072 162.709 91.9878C163.476 91.6365 164.036 91.1414 164.387 90.5026C164.771 89.8638 164.963 89.0812 164.963 88.155C164.963 87.1968 164.771 86.4142 164.387 85.8073C164.036 85.1685 163.476 84.6894 162.709 84.37C161.973 84.0506 161.046 83.8909 159.927 83.8909H154.89V92.4669ZM176.938 108.325H185.571V76.2252H176.938V108.325ZM207.336 108.325H212.229V101.762H210.838C210.422 101.762 210.118 101.666 209.926 101.474C209.766 101.251 209.687 100.883 209.687 100.372V93.2335C209.687 90.1992 208.807 87.9314 207.048 86.4302C205.29 84.929 202.891 84.1784 199.854 84.1784C198.223 84.1784 196.672 84.386 195.201 84.8012C193.73 85.1845 192.371 85.7275 191.124 86.4302C189.877 87.1009 188.758 87.8835 187.766 88.7778L191.604 95.102C192.595 93.9841 193.794 93.0898 195.201 92.419C196.608 91.7483 197.999 91.4129 199.374 91.4129C200.749 91.4129 201.596 91.7323 201.916 92.3711C202.046 92.6304 202.149 92.9582 202.227 93.3544L195.873 95.2936C193.25 96.0922 191.348 97.0823 190.165 98.2641C189.013 99.414 188.438 100.947 188.438 102.864C188.438 105.004 189.029 106.537 190.213 107.463C191.428 108.389 192.899 108.852 194.625 108.852C196.32 108.852 197.663 108.469 198.655 107.702C199.678 106.904 200.445 105.946 200.957 104.828C201.429 103.856 201.781 102.908 202.012 101.985V103.822C202.012 104.94 202.268 105.834 202.78 106.505C203.291 107.144 203.947 107.607 204.746 107.894C205.578 108.182 206.441 108.325 207.336 108.325ZM202.012 99.3181V98.613L198.127 99.9889C197.327 100.276 196.784 100.548 196.496 100.803C196.24 101.059 196.112 101.346 196.112 101.666C196.112 102.049 196.256 102.352 196.544 102.576C196.864 102.768 197.327 102.864 197.935 102.864C198.639 102.864 199.246 102.8 199.758 102.672C200.269 102.512 200.685 102.289 201.005 102.001C201.357 101.714 201.612 101.346 201.772 100.899C201.932 100.452 202.012 99.925 202.012 99.3181ZM217.829 117.285C218.981 117.572 220.164 117.716 221.379 117.716C224.033 117.716 226.175 117.061 227.806 115.751C229.437 114.474 230.748 112.382 231.739 109.475L239.989 84.6575H230.109L227.806 93.1377L225.936 102.959L224.113 93.1377L221.858 84.6575H212.169L219.748 106.696H224.895L224.449 107.846C224.097 108.741 223.665 109.347 223.154 109.667C222.642 109.986 221.954 110.146 221.091 110.146C220.1 110.146 219.092 109.89 218.069 109.379C217.078 108.868 216.135 108.214 215.239 107.415L212.265 114.937C212.937 115.416 213.736 115.863 214.664 116.278C215.623 116.694 216.678 117.029 217.829 117.285ZM132.737 298.838C119.202 288.986 108.566 274.917 103.369 255.743H112.413C117.31 271.9 126.525 283.568 137.859 291.818C155.099 304.367 177.684 309.313 198.582 309.313C245.145 309.313 273.678 284.493 288.397 255.743H298.053C282.772 288.416 251.317 318 198.582 318C176.521 318 151.932 312.811 132.737 298.838ZM120.557 138.001C120.557 138.001 120.545 137.998 120.527 137.989C120.549 137.995 120.557 138.001 120.557 138.001ZM16.5016 249.688H27.054L28.7328 241.256L30.0758 231.29L31.4188 241.256L33.0976 249.688H43.65L49.5018 226.02H40.1006L39.0453 236.129L38.2779 244.466L36.9348 236.177L34.7764 226.02H25.2793L23.3127 236.177L21.8737 244.466L21.1063 236.129L20.0511 226.02H10.6499L16.5016 249.688ZM51.6752 223.864H60.3089V217.588H51.6752V223.864ZM51.6752 249.688H60.3089V226.02H51.6752V249.688ZM69.507 249.113C70.7541 249.816 72.4009 250.167 74.4474 250.167C76.3661 250.167 77.9489 249.816 79.196 249.113C80.4431 248.41 81.3225 247.771 81.8341 247.197L79.4838 240.729C79.1001 241.335 78.6204 241.815 78.0448 242.166C77.5012 242.517 76.9576 242.693 76.414 242.693C75.8704 242.693 75.4387 242.533 75.119 242.214C74.8312 241.894 74.6873 241.431 74.6873 240.824V232.536H80.4431V226.02H74.6873V219.504L66.0535 223.337V226.02H62.6959V232.536H66.0535V242.07C66.0535 243.603 66.3253 244.977 66.8689 246.19C67.4125 247.404 68.2919 248.378 69.507 249.113ZM99.099 249.688H107.733V233.111C107.733 230.683 107.093 228.815 105.814 227.505C104.567 226.196 102.84 225.541 100.634 225.541C98.8432 225.541 97.3882 225.956 96.269 226.787C95.1818 227.585 94.3504 228.639 93.7748 229.949C93.3585 230.952 93.0547 231.992 92.8635 233.07V217.588H84.2297V249.688H92.8635V236.8C92.8635 235.522 92.9434 234.548 93.1033 233.877C93.2952 233.175 93.6149 232.696 94.0626 232.44C94.5103 232.185 95.1498 232.057 95.9812 232.057C97.2923 232.057 98.1397 232.44 98.5234 233.207C98.9071 233.941 99.099 235.027 99.099 236.465V249.688ZM124.967 249.113C126.214 249.816 127.861 250.167 129.907 250.167C131.826 250.167 133.409 249.816 134.656 249.113C135.903 248.41 136.782 247.771 137.294 247.197L134.944 240.729C134.56 241.335 134.08 241.815 133.505 242.166C132.961 242.517 132.417 242.693 131.874 242.693C131.33 242.693 130.899 242.533 130.579 242.214C130.291 241.894 130.147 241.431 130.147 240.824V232.536H135.903V226.02H130.147V219.504L121.513 223.337V226.02H118.156V232.536H121.513V242.07C121.513 243.603 121.785 244.977 122.329 246.19C122.872 247.404 123.752 248.378 124.967 249.113ZM154.559 249.688H163.193V233.111C163.193 230.683 162.553 228.815 161.274 227.505C160.027 226.196 158.3 225.541 156.094 225.541C154.303 225.541 152.848 225.956 151.729 226.787C150.642 227.585 149.81 228.639 149.235 229.949C148.818 230.952 148.515 231.992 148.323 233.07V217.588H139.69V249.688H148.323V236.8C148.323 235.522 148.403 234.548 148.563 233.877C148.755 233.175 149.075 232.696 149.522 232.44C149.97 232.185 150.61 232.057 151.441 232.057C152.752 232.057 153.6 232.44 153.983 233.207C154.367 233.941 154.559 235.027 154.559 236.465V249.688ZM171.607 248.586C173.494 249.64 175.796 250.167 178.514 250.167C181.232 250.167 183.407 249.688 185.037 248.73C186.7 247.771 187.979 246.701 188.875 245.52L183.646 240.537C183.359 241.208 182.959 241.751 182.447 242.166C181.968 242.549 181.408 242.837 180.768 243.028C180.161 243.188 179.457 243.268 178.658 243.268C177.731 243.268 176.883 243.124 176.116 242.837C175.38 242.549 174.789 242.086 174.341 241.447C174.113 241.079 173.947 240.648 173.844 240.154H189.066C189.13 239.866 189.178 239.355 189.21 238.621C189.274 237.886 189.306 237.231 189.306 236.656C189.306 234.74 188.891 232.935 188.059 231.242C187.26 229.549 186.013 228.176 184.318 227.122C182.623 226.068 180.417 225.541 177.699 225.541C175.3 225.541 173.206 226.068 171.415 227.122C169.657 228.176 168.282 229.629 167.29 231.482C166.331 233.334 165.851 235.458 165.851 237.854C165.851 240.25 166.331 242.374 167.29 244.226C168.282 246.079 169.72 247.532 171.607 248.586ZM173.732 235.698C173.805 234.53 174.152 233.635 174.773 233.015C175.508 232.312 176.5 231.961 177.747 231.961C179.154 231.961 180.145 232.328 180.721 233.063C181.22 233.701 181.503 234.579 181.569 235.698H173.732ZM204.85 249.688H215.402L217.081 241.256L218.424 231.29L219.767 241.256L221.446 249.688H231.998L237.85 226.02H228.449L227.393 236.129L226.626 244.466L225.283 236.177L223.124 226.02H213.627L211.661 236.177L210.222 244.466L209.454 236.129L208.399 226.02H198.998L204.85 249.688ZM243.274 248.586C245.129 249.64 247.319 250.167 249.845 250.167C252.499 250.167 254.77 249.64 256.656 248.586C258.575 247.5 260.03 246.031 261.021 244.178C262.044 242.294 262.556 240.186 262.556 237.854C262.556 235.49 262.044 233.382 261.021 231.53C260.03 229.677 258.575 228.224 256.656 227.17C254.77 226.084 252.499 225.541 249.845 225.541C247.319 225.541 245.129 226.084 243.274 227.17C241.451 228.224 240.028 229.677 239.005 231.53C238.014 233.382 237.518 235.49 237.518 237.854C237.518 240.186 238.014 242.294 239.005 244.178C240.028 246.031 241.451 247.5 243.274 248.586ZM251.956 242.789C251.412 243.108 250.773 243.268 250.037 243.268C249.302 243.268 248.646 243.108 248.07 242.789C247.527 242.437 247.095 241.878 246.775 241.112C246.456 240.313 246.296 239.227 246.296 237.854C246.296 236.481 246.456 235.411 246.775 234.644C247.095 233.845 247.527 233.286 248.07 232.967C248.646 232.616 249.302 232.44 250.037 232.44C250.773 232.44 251.412 232.616 251.956 232.967C252.531 233.286 252.979 233.845 253.299 234.644C253.618 235.411 253.778 236.481 253.778 237.854C253.778 239.227 253.618 240.313 253.299 241.112C252.979 241.878 252.531 242.437 251.956 242.789ZM265.317 249.688H273.951V237.758C273.951 236.481 274.127 235.426 274.479 234.596C274.831 233.734 275.294 233.095 275.87 232.68C276.477 232.264 277.101 232.057 277.74 232.057C278.444 232.057 278.94 232.264 279.227 232.68C279.547 233.095 279.707 233.638 279.707 234.309C279.707 235.011 279.515 235.778 279.131 236.608C278.748 237.407 278.332 238.062 277.884 238.573H285.799C286.15 237.966 286.502 237.087 286.854 235.938C287.238 234.788 287.429 233.494 287.429 232.057C287.429 230.076 286.998 228.495 286.134 227.314C285.303 226.132 283.848 225.541 281.77 225.541C280.458 225.541 279.323 225.828 278.364 226.403C277.405 226.978 276.605 227.745 275.966 228.703C275.358 229.629 274.878 230.651 274.527 231.769C274.28 232.532 274.088 233.295 273.951 234.058V226.02H265.317V249.688ZM289.581 249.688H298.215V217.588H289.581V249.688ZM305.063 248.778C306.438 249.704 308.068 250.167 309.955 250.167C311.81 250.167 313.217 249.752 314.176 248.921C315.167 248.091 315.855 247.037 316.239 245.759C316.55 244.777 316.79 243.759 316.958 242.705V249.688H325.592V217.588H316.958V233.038C316.778 231.972 316.506 230.942 316.143 229.949C315.663 228.639 314.896 227.585 313.84 226.787C312.785 225.956 311.33 225.541 309.475 225.541C307.749 225.541 306.23 226.004 304.919 226.93C303.608 227.857 302.584 229.23 301.849 231.051C301.145 232.871 300.794 235.139 300.794 237.854C300.794 240.537 301.161 242.805 301.897 244.657C302.632 246.478 303.688 247.851 305.063 248.778ZM316.958 236.8C316.958 235.522 316.798 234.548 316.478 233.877C316.159 233.175 315.727 232.696 315.183 232.44C314.64 232.185 314.048 232.057 313.409 232.057C312.098 232.057 311.122 232.584 310.483 233.638C309.875 234.692 309.571 236.097 309.571 237.854C309.571 239.611 309.891 241.016 310.531 242.07C311.202 243.124 312.225 243.651 313.6 243.651C314.208 243.651 314.768 243.523 315.279 243.268C315.791 243.012 316.191 242.549 316.478 241.878C316.798 241.176 316.958 240.186 316.958 238.908V236.8ZM328.484 249.688H337.117V241.495H328.484V249.688Z"
    fill="white"
  />
</svg>
