<svg width="70" height="70" viewBox="0 0 70 70" fill="none" xmlns="http://www.w3.org/2000/svg">
  <circle cx="35" cy="35" r="35" fill="black"/>
  <path
    d="M35.3542 24.0512C36.6778 24.0512 38.3371 23.1288 39.3252 21.899C40.2201 20.7844 40.8726 19.2279 40.8726 17.6714C40.8726 17.46 40.854 17.2486 40.8167 17.0757C39.3439 17.1333 37.5727 18.0941 36.5101 19.3816C35.6711 20.3617 34.9067 21.899 34.9067 23.4747C34.9067 23.7053 34.944 23.9359 34.9626 24.0128C35.0559 24.032 35.205 24.0512 35.3542 24.0512ZM30.6933 47.303C32.5017 47.303 33.3034 46.0539 35.5592 46.0539C37.8524 46.0539 38.3558 47.2645 40.3693 47.2645C42.3455 47.2645 43.6691 45.3813 44.9183 43.5366C46.3165 41.4228 46.8945 39.3474 46.9318 39.2513C46.8012 39.2129 43.0166 37.6179 43.0166 33.1405C43.0166 29.2588 45.9996 27.5101 46.1674 27.3756C44.1912 24.4548 41.1896 24.3779 40.3693 24.3779C38.1507 24.3779 36.3423 25.7615 35.205 25.7615C33.9745 25.7615 32.3526 24.4548 30.4323 24.4548C26.7782 24.4548 23.0681 27.5678 23.0681 33.448C23.0681 37.0991 24.4477 40.9616 26.1443 43.4597C27.5985 45.5735 28.8662 47.303 30.6933 47.303Z"
    fill="white"/>
</svg>
