<svg width="70" height="70" viewBox="0 0 70 70" fill="none" xmlns="http://www.w3.org/2000/svg">
  <circle cx="35" cy="35" r="35" fill="#EAEAEA"/>
  <path fill-rule="evenodd" clip-rule="evenodd"
        d="M35.0157 16C24.5005 16 16 24.7083 16 35.4816C16 44.0934 21.4466 51.383 29.0024 53.963C29.9471 54.157 30.2931 53.5438 30.2931 53.0281C30.2931 52.5764 30.262 51.0283 30.262 49.4153C24.9723 50.5767 23.8707 47.093 23.8707 47.093C23.0206 44.8352 21.7611 44.2549 21.7611 44.2549C20.0298 43.0614 21.8872 43.0614 21.8872 43.0614C23.8077 43.1905 24.8154 45.0612 24.8154 45.0612C26.5152 48.0283 29.2543 47.19 30.3562 46.6738C30.5134 45.4158 31.0175 44.545 31.5527 44.0613C27.3338 43.6097 22.8949 41.9325 22.8949 34.4493C22.8949 32.3205 23.65 30.5789 24.8465 29.2243C24.6578 28.7406 23.9965 26.7405 25.0357 24.0635C25.0357 24.0635 26.6413 23.5473 30.2616 26.0632C31.8116 25.6368 33.41 25.4199 35.0157 25.418C36.6213 25.418 38.2581 25.644 39.7695 26.0632C43.3901 23.5473 44.9957 24.0635 44.9957 24.0635C46.035 26.7405 45.3733 28.7406 45.1845 29.2243C46.4125 30.5789 47.1365 32.3205 47.1365 34.4493C47.1365 41.9325 42.6977 43.5772 38.4472 44.0613C39.1401 44.674 39.7379 45.835 39.7379 47.6737C39.7379 50.2861 39.7068 52.3829 39.7068 53.0277C39.7068 53.5438 40.0532 54.157 40.9975 53.9634C48.5533 51.3826 53.9999 44.0934 53.9999 35.4816C54.0311 24.7083 45.4994 16 35.0157 16Z"
        fill="#24292F"/>
</svg>
