<svg width="70" height="70" viewBox="0 0 70 70" fill="none" xmlns="http://www.w3.org/2000/svg">
  <circle cx="35" cy="35" r="35" fill="#EAEAEA"/>
  <g clip-path="url(#clip0_555_16)">
    <path
      d="M52.9816 35.8274C52.9816 34.3935 52.8625 33.3471 52.6048 32.262H35.8486V38.734H45.6841C45.4859 40.3424 44.4151 42.7646 42.0355 44.3923L42.0021 44.6089L47.3001 48.6197L47.6672 48.6555C51.0382 45.6131 52.9816 41.1369 52.9816 35.8274Z"
      fill="#4285F4"/>
    <path
      d="M35.8487 52.8798C40.6673 52.8798 44.7125 51.3295 47.6672 48.6555L42.0355 44.3923C40.5285 45.4193 38.5058 46.1363 35.8487 46.1363C31.1292 46.1363 27.1237 43.0941 25.6958 38.8892L25.4865 38.9065L19.9776 43.0727L19.9055 43.2684C22.8403 48.9654 28.8686 52.8798 35.8487 52.8798Z"
      fill="#34A853"/>
    <path
      d="M25.6956 38.8891C25.3188 37.8039 25.1008 36.6412 25.1008 35.4398C25.1008 34.2384 25.3188 33.0757 25.6758 31.9906L25.6658 31.7595L20.0878 27.5264L19.9053 27.6112C18.6958 29.9753 18.0017 32.6301 18.0017 35.4398C18.0017 38.2496 18.6958 40.9042 19.9053 43.2684L25.6956 38.8891Z"
      fill="#FBBC05"/>
    <path
      d="M35.8487 24.7434C39.1999 24.7434 41.4604 26.1579 42.7494 27.3401L47.7862 22.5344C44.6928 19.7246 40.6673 18 35.8487 18C28.8686 18 22.8403 21.9143 19.9055 27.6112L25.676 31.9906C27.1237 27.7857 31.1292 24.7434 35.8487 24.7434Z"
      fill="#EB4335"/>
  </g>
  <defs>
    <clipPath id="clip0_555_16">
      <rect width="35" height="35" fill="white" transform="translate(18 18)"/>
    </clipPath>
  </defs>
</svg>
