<svg width="70" height="70" viewBox="0 0 70 70" fill="none" xmlns="http://www.w3.org/2000/svg">
  <circle cx="35" cy="35" r="35" fill="#1D9BF0"/>
  <path
    d="M50.3144 28.2195C50.3364 28.5341 50.3364 28.8487 50.3364 29.1663C50.3364 38.8415 42.9068 50 29.3214 50V49.9942C25.3082 50 21.3784 48.8604 18 46.7116C18.5835 46.7812 19.17 46.816 19.758 46.8175C23.0837 46.8204 26.3144 45.7141 28.9309 43.6769C25.7704 43.6175 22.9989 41.5746 22.0307 38.5921C23.1378 38.8038 24.2786 38.7603 25.3653 38.466C21.9196 37.7758 19.4406 34.7745 19.4406 31.2889C19.4406 31.257 19.4406 31.2266 19.4406 31.1961C20.4673 31.7631 21.6168 32.0777 22.7927 32.1125C19.5473 29.9623 18.547 25.6821 20.5068 22.3357C24.2567 26.9102 29.7894 29.6911 35.7287 29.9855C35.1335 27.4423 35.9466 24.7774 37.8654 22.9897C40.8402 20.2174 45.5188 20.3595 48.3152 23.3072C49.9693 22.9839 51.5547 22.3821 53.0055 21.5296C52.4541 23.2245 51.3002 24.6643 49.7587 25.5792C51.2227 25.4081 52.653 25.0195 54 24.4265C53.0084 25.8996 51.7594 27.1828 50.3144 28.2195Z"
    fill="white"/>
</svg>
