<svg xmlns="http://www.w3.org/2000/svg">
  <symbol id="logo" viewBox="0 0 63 65">
    <path
      d="M4.81554 26.1512C3.61305 25.7135 2.63591 25.062 1.88412 24.1967C1.15237 23.3387 0.694176 22.3527 0.509532 21.2387C0.352243 20.1119 0.493012 18.9457 0.931838 17.74L5.61631 4.86953C6.05514 3.66386 6.69328 2.69004 7.53075 1.94806C8.39558 1.19328 9.38402 0.722435 10.4961 0.535528C11.6282 0.355912 12.7955 0.484936 13.998 0.922606L45.8038 12.499C47.0063 12.9366 47.9734 13.5845 48.7051 14.4425C49.4569 15.3078 49.9115 16.3038 50.0687 17.4306C50.2534 18.5446 50.1263 19.7045 49.6875 20.9101L47.625 26.5768C47.0009 28.2914 45.1087 29.1768 43.3986 28.5543V28.5543C41.6885 27.9319 40.8081 26.0374 41.4322 24.3228L43.2423 19.3494C43.282 19.2403 43.3075 19.1418 43.3186 19.0538C43.3285 18.9756 43.342 18.8918 43.3178 18.8169V18.8169C43.2828 18.7078 43.1717 18.6433 43.0716 18.588C43.0097 18.5537 42.9329 18.5199 42.8414 18.4866L12.4185 7.41359C12.2381 7.34794 12.0905 7.31697 11.9757 7.32069V7.32069C11.7887 7.30127 11.6768 7.5158 11.6055 7.69024C11.5893 7.7298 11.5731 7.77198 11.5568 7.81679L7.366 19.3309C7.3497 19.3757 7.33502 19.4184 7.32197 19.4591C7.26443 19.6386 7.21228 19.8749 7.368 19.9802V19.9802C7.46089 20.0367 7.59752 20.0979 7.7779 20.1635L19.2616 24.3432C19.442 24.4089 19.5759 24.4463 19.6634 24.4553V24.4553C19.8544 24.4844 19.9825 24.2701 20.0624 24.0936C20.0797 24.0553 20.0964 24.0141 20.1124 23.9702L24.5445 11.793C25.1686 10.0783 27.0608 9.19295 28.7709 9.81538V9.81538C30.481 10.4378 31.3614 12.3324 30.7373 14.047L26.0638 26.8873C25.625 28.093 24.9732 29.0732 24.1083 29.828C23.2709 30.57 22.2861 31.0308 21.154 31.2104C20.0419 31.3973 18.8846 31.2719 17.6822 30.8342L4.81554 26.1512ZM16.8733 52.0446C15.6708 51.607 14.6936 50.9555 13.9418 50.0902C13.1901 49.2249 12.7218 48.2352 12.5372 47.1212C12.3799 45.9944 12.5243 44.8182 12.9705 43.5924L15.022 37.9559C15.6461 36.2413 17.5383 35.3559 19.2484 35.9783V35.9783C20.9585 36.6007 21.8389 38.4953 21.2148 40.2099L19.4046 45.1833C19.3722 45.2725 19.3462 45.3535 19.3266 45.4264C19.2985 45.5314 19.2824 45.6457 19.3281 45.7443V45.7443C19.3739 45.8428 19.4717 45.9037 19.5701 45.9493C19.6444 45.9837 19.7329 46.0196 19.8356 46.057L43.72 54.7502C45.4384 55.3756 46.3231 57.2794 45.696 59.0023V59.0023C45.0689 60.7253 43.1675 61.615 41.4491 60.9895L16.8733 52.0446ZM36.5722 37.6755C37.1963 35.9609 39.0885 35.0755 40.7986 35.6979V35.6979C42.5087 36.3203 43.3891 38.2149 42.765 39.9295L40.7135 45.566C40.0894 47.2806 38.1972 48.166 36.4871 47.5436V47.5436C34.777 46.9211 33.8966 45.0266 34.5207 43.312L36.5722 37.6755ZM55.281 45.2018C55.297 45.1578 55.3107 45.1156 55.322 45.0751C55.3743 44.8886 55.4139 44.642 55.2489 44.5415V44.5415C55.156 44.485 55.0194 44.4239 54.839 44.3582L30.9546 35.665C29.2362 35.0396 28.3515 33.1358 28.9786 31.4129V31.4129C29.6057 29.6899 31.5071 28.8002 33.2255 29.4257L57.8014 38.3706C59.0039 38.8082 59.981 39.4597 60.7328 40.325C61.4846 41.1903 61.9391 42.1864 62.0964 43.3132C62.2811 44.4272 62.1576 45.5769 61.7261 46.7625L55.9117 62.7376C55.2876 64.4522 53.3954 65.3376 51.6853 64.7152V64.7152C49.9752 64.0927 49.0948 62.1982 49.7189 60.4836L55.281 45.2018Z"/>
  </symbol>
</svg>
