<?xml version="1.0" encoding="utf-8"?>
<!-- Generator: Adobe Illustrator 26.0.2, SVG Export Plug-In . SVG Version: 6.00 Build 0)  -->
<svg version="1.1" id="图层_1" xmlns="http://www.w3.org/2000/svg" xmlns:xlink="http://www.w3.org/1999/xlink" x="0px" y="0px"
	 viewBox="0 0 1920 1080" style="enable-background:new 0 0 1920 1080;" xml:space="preserve">
<style type="text/css">
	.st0{fill-rule:evenodd;clip-rule:evenodd;fill:url(#SVGID_1_);}
</style>
<linearGradient id="SVGID_1_" gradientUnits="userSpaceOnUse" x1="1487.3428" y1="1121.3977" x2="1716.9537" y2="213.1563" gradientTransform="matrix(1 0 0 -1 0 1081)">
	<stop  offset="0" style="stop-color:#828EFF"/>
	<stop  offset="1" style="stop-color:#828EFF;stop-opacity:0"/>
</linearGradient>
<path class="st0" d="M1596,821.2c-58.2,8.6-113.4,19.2-166.4,31.1c-3.4-8.1-5.9-16.6-7.4-25.5c-2.9-20.9-0.2-42.6,8-65.3l38-104.3
	c11.6-31.7,46.6-48.1,78.2-36.6c31.7,11.5,48,46.6,36.4,78.3l-33.5,92.1c-0.6,1.7-1.1,3.1-1.4,4.5c-0.5,1.9-0.8,4.1,0,5.9
	c0.8,1.8,2.7,3,4.5,3.8c1.4,0.6,3,1.3,4.9,2L1596,821.2z M1920,143v130.8l-161.1-58.6l-86.3,237.1c-8.1,22.3-20.2,40.5-36.2,54.4
	c-15.5,13.7-33.7,22.3-54.7,25.6c-20.6,3.5-42,1.1-64.3-7l-238.2-86.7c-22.3-8.1-40.3-20.2-54.3-36.2c-13.5-15.9-22-34.1-25.4-54.8
	c-2.9-20.9-0.3-42.4,7.8-64.8l86.7-238.2c8.1-22.3,19.9-40.3,35.4-54.1c16-14,34.3-22.7,54.9-26.1c21-3.3,42.6-0.9,64.8,7.2
	L1920,143z M1644.3,173.4L1420,91.8c-3.3-1.2-6.1-1.8-8.2-1.7c-3.5-0.4-5.5,3.6-6.9,6.8c-0.3,0.7-0.6,1.5-0.9,2.3l-77.6,213.1
	c-0.3,0.8-0.6,1.6-0.8,2.4c-1.1,3.3-2,7.7,0.9,9.6c1.7,1,4.2,2.2,7.6,3.4l212.6,77.4c3.3,1.2,5.8,1.9,7.4,2.1
	c3.5,0.5,5.9-3.4,7.4-6.7c0.3-0.7,0.6-1.5,0.9-2.3L1644.3,173.4z M1920,541v70.8v60v126c-30.9,0-61,0.6-90.4,1.7
	c-5.2-13.4-5.8-28.7-0.5-43.3l37.8-103.8l-103.8-37.8c-31.8-11.6-48.2-46.8-36.6-78.7c11.6-31.9,46.8-48.4,78.6-36.8L1920,541z"/>
</svg>
