<svg width="824" height="850" viewBox="0 0 824 850" fill="none" xmlns="http://www.w3.org/2000/svg">
  <g filter="url(#filter0_d_444_188)">
    <mask id="path-1-outside-1_444_188" maskUnits="userSpaceOnUse" x="64" y="-1" width="784" height="744" fill="black">
      <rect fill="white" x="64" y="-1" width="784" height="744"/>
      <path fill-rule="evenodd" clip-rule="evenodd"
            d="M221.048 7.85219L221.071 7.85832C221.416 7.95064 221.762 8.04317 222.109 8.13585L594.111 107.622C603.593 110.156 612.506 112.539 619.832 115.153C627.79 117.992 636.562 121.986 644.459 129.083C655.602 139.097 663.282 152.374 666.4 167.013C668.609 177.386 667.689 186.966 666.173 195.264C664.778 202.903 662.389 211.799 659.848 221.261L639.681 296.382C635.025 313.724 617.165 324.015 599.79 319.369C582.415 314.722 572.104 296.897 576.759 279.555L596.643 205.493C599.567 194.599 601.229 188.311 602.088 183.607C602.443 181.661 602.541 180.567 602.566 180.076C602.304 179.197 601.838 178.392 601.207 177.726C600.768 177.503 599.771 177.04 597.904 176.374C593.393 174.765 587.106 173.057 576.191 170.138L422.181 128.951L380.658 283.618L380.657 283.619L380.657 283.62L380.657 283.621L380.656 283.623C378.117 293.084 375.73 301.978 373.112 309.289C370.267 317.232 366.265 325.987 359.155 333.868C349.122 344.99 335.819 352.656 321.152 355.767C310.758 357.972 301.16 357.054 292.846 355.541C285.192 354.149 276.28 351.765 266.8 349.229L266.799 349.228L138.604 314.945L138.603 314.945L138.603 314.944L138.603 314.944L138.602 314.944C129.122 312.41 120.209 310.027 112.883 307.413C104.926 304.574 96.1531 300.58 88.2568 293.484C77.1137 283.47 69.433 270.192 66.3154 255.553C64.1062 245.18 65.0267 235.6 66.542 227.302C67.937 219.663 70.326 210.768 72.8673 201.305L106.905 74.5207C107 74.1671 107.094 73.8143 107.189 73.4622L107.189 73.4619C109.728 63.9989 112.116 55.1031 114.735 47.7912C117.58 39.8486 121.581 31.0931 128.691 23.2119C138.725 12.0903 152.028 4.42441 166.695 1.31289C177.088 -0.892038 186.686 0.0266827 195 1.53906C202.655 2.93137 211.567 5.31578 221.048 7.85219ZM359.259 112.123L205.249 70.9359C194.334 68.017 188.034 66.3582 183.321 65.5009C181.371 65.1462 180.275 65.0491 179.783 65.0234C178.903 65.2852 178.096 65.75 177.429 66.3801C177.205 66.8179 176.741 67.8139 176.074 69.6765C174.462 74.1789 172.751 80.4542 169.826 91.3479L136.073 217.074C133.148 227.967 131.486 234.256 130.627 238.96C130.272 240.906 130.175 242 130.149 242.49C130.411 243.369 130.877 244.174 131.508 244.84C131.947 245.063 132.945 245.526 134.811 246.192C139.322 247.802 145.61 249.509 156.524 252.428L282.598 286.144C293.512 289.063 299.813 290.722 304.526 291.579C306.476 291.934 307.572 292.031 308.063 292.057C308.944 291.795 309.75 291.33 310.418 290.7C310.641 290.262 311.105 289.266 311.772 287.404C313.385 282.901 315.096 276.626 318.02 265.732L359.259 112.123ZM310.267 290.977C310.269 290.974 310.271 290.97 310.275 290.965C310.269 290.976 310.265 290.98 310.265 290.98C310.265 290.98 310.266 290.979 310.267 290.977ZM308.383 292.065C308.383 292.065 308.377 292.066 308.365 292.066C308.377 292.065 308.383 292.065 308.383 292.065ZM131.243 244.698C131.232 244.691 131.227 244.688 131.227 244.688C131.227 244.688 131.229 244.689 131.231 244.69C131.233 244.692 131.237 244.694 131.243 244.698ZM130.14 242.791C130.141 242.803 130.141 242.809 130.141 242.809C130.141 242.809 130.14 242.803 130.14 242.791ZM177.581 66.0999C177.581 66.0999 177.578 66.1053 177.572 66.1152C177.578 66.1047 177.581 66.0999 177.581 66.0999ZM179.464 65.015C179.464 65.015 179.47 65.0147 179.482 65.0145C179.47 65.015 179.464 65.015 179.464 65.015Z"/>
      <path fill-rule="evenodd" clip-rule="evenodd"
            d="M538.544 421.902L436.611 394.642C419.236 389.995 408.925 372.17 413.581 354.828C418.236 337.486 436.096 327.195 453.471 331.841L773.396 417.4L773.397 417.4C782.878 419.935 791.791 422.317 799.117 424.931C807.074 427.77 815.847 431.765 823.743 438.861C834.886 448.875 842.567 462.153 845.685 476.791C847.894 487.165 846.973 496.744 845.458 505.042C844.063 512.681 841.674 521.577 839.133 531.039L789.236 716.898C784.58 734.24 766.721 744.531 749.345 739.884C731.97 735.238 721.659 717.412 726.315 700.071L775.927 515.271C778.852 504.377 780.514 498.089 781.373 493.385C781.728 491.439 781.825 490.345 781.851 489.854C781.589 488.975 781.123 488.17 780.492 487.504C780.053 487.281 779.055 486.818 777.189 486.152C772.678 484.543 766.39 482.835 755.476 479.916L601.465 438.729L574.152 540.465C569.497 557.807 551.637 568.098 534.262 563.452C516.887 558.805 506.575 540.98 511.231 523.638L538.544 421.902ZM781.859 489.535C781.859 489.535 781.86 489.541 781.86 489.553C781.859 489.542 781.859 489.535 781.859 489.535Z"/>
      <path fill-rule="evenodd" clip-rule="evenodd"
            d="M313.878 556.361C318.389 557.97 324.677 559.678 335.592 562.597L654.456 647.872C671.831 652.519 682.143 670.344 677.487 687.686C672.831 705.027 654.972 715.319 637.596 710.672L317.671 625.114L317.669 625.113L317.667 625.113C308.187 622.578 299.276 620.196 291.951 617.582C283.993 614.743 275.22 610.749 267.324 603.653C256.181 593.639 248.5 580.361 245.383 565.722C243.174 555.349 244.094 545.769 245.609 537.471C247.004 529.832 249.393 520.937 251.935 511.474L272.158 436.144C276.814 418.802 294.674 408.511 312.049 413.157C329.424 417.804 339.735 435.629 335.08 452.971L315.14 527.243C312.216 538.136 310.554 544.425 309.695 549.129C309.339 551.075 309.242 552.169 309.216 552.659C309.479 553.538 309.944 554.343 310.576 555.009C311.014 555.232 312.012 555.695 313.878 556.361ZM309.208 552.978C309.208 552.978 309.208 552.972 309.207 552.96C309.208 552.972 309.208 552.978 309.208 552.978Z"/>
    </mask>
    <path fill-rule="evenodd" clip-rule="evenodd"
          d="M221.048 7.85219L221.071 7.85832C221.416 7.95064 221.762 8.04317 222.109 8.13585L594.111 107.622C603.593 110.156 612.506 112.539 619.832 115.153C627.79 117.992 636.562 121.986 644.459 129.083C655.602 139.097 663.282 152.374 666.4 167.013C668.609 177.386 667.689 186.966 666.173 195.264C664.778 202.903 662.389 211.799 659.848 221.261L639.681 296.382C635.025 313.724 617.165 324.015 599.79 319.369C582.415 314.722 572.104 296.897 576.759 279.555L596.643 205.493C599.567 194.599 601.229 188.311 602.088 183.607C602.443 181.661 602.541 180.567 602.566 180.076C602.304 179.197 601.838 178.392 601.207 177.726C600.768 177.503 599.771 177.04 597.904 176.374C593.393 174.765 587.106 173.057 576.191 170.138L422.181 128.951L380.658 283.618L380.657 283.619L380.657 283.62L380.657 283.621L380.656 283.623C378.117 293.084 375.73 301.978 373.112 309.289C370.267 317.232 366.265 325.987 359.155 333.868C349.122 344.99 335.819 352.656 321.152 355.767C310.758 357.972 301.16 357.054 292.846 355.541C285.192 354.149 276.28 351.765 266.8 349.229L266.799 349.228L138.604 314.945L138.603 314.945L138.603 314.944L138.603 314.944L138.602 314.944C129.122 312.41 120.209 310.027 112.883 307.413C104.926 304.574 96.1531 300.58 88.2568 293.484C77.1137 283.47 69.433 270.192 66.3154 255.553C64.1062 245.18 65.0267 235.6 66.542 227.302C67.937 219.663 70.326 210.768 72.8673 201.305L106.905 74.5207C107 74.1671 107.094 73.8143 107.189 73.4622L107.189 73.4619C109.728 63.9989 112.116 55.1031 114.735 47.7912C117.58 39.8486 121.581 31.0931 128.691 23.2119C138.725 12.0903 152.028 4.42441 166.695 1.31289C177.088 -0.892038 186.686 0.0266827 195 1.53906C202.655 2.93137 211.567 5.31578 221.048 7.85219ZM359.259 112.123L205.249 70.9359C194.334 68.017 188.034 66.3582 183.321 65.5009C181.371 65.1462 180.275 65.0491 179.783 65.0234C178.903 65.2852 178.096 65.75 177.429 66.3801C177.205 66.8179 176.741 67.8139 176.074 69.6765C174.462 74.1789 172.751 80.4542 169.826 91.3479L136.073 217.074C133.148 227.967 131.486 234.256 130.627 238.96C130.272 240.906 130.175 242 130.149 242.49C130.411 243.369 130.877 244.174 131.508 244.84C131.947 245.063 132.945 245.526 134.811 246.192C139.322 247.802 145.61 249.509 156.524 252.428L282.598 286.144C293.512 289.063 299.813 290.722 304.526 291.579C306.476 291.934 307.572 292.031 308.063 292.057C308.944 291.795 309.75 291.33 310.418 290.7C310.641 290.262 311.105 289.266 311.772 287.404C313.385 282.901 315.096 276.626 318.02 265.732L359.259 112.123ZM310.267 290.977C310.269 290.974 310.271 290.97 310.275 290.965C310.269 290.976 310.265 290.98 310.265 290.98C310.265 290.98 310.266 290.979 310.267 290.977ZM308.383 292.065C308.383 292.065 308.377 292.066 308.365 292.066C308.377 292.065 308.383 292.065 308.383 292.065ZM131.243 244.698C131.232 244.691 131.227 244.688 131.227 244.688C131.227 244.688 131.229 244.689 131.231 244.69C131.233 244.692 131.237 244.694 131.243 244.698ZM130.14 242.791C130.141 242.803 130.141 242.809 130.141 242.809C130.141 242.809 130.14 242.803 130.14 242.791ZM177.581 66.0999C177.581 66.0999 177.578 66.1053 177.572 66.1152C177.578 66.1047 177.581 66.0999 177.581 66.0999ZM179.464 65.015C179.464 65.015 179.47 65.0147 179.482 65.0145C179.47 65.015 179.464 65.015 179.464 65.015Z"
          fill="url(#paint0_radial_444_188)" shape-rendering="crispEdges"/>
    <path fill-rule="evenodd" clip-rule="evenodd"
          d="M538.544 421.902L436.611 394.642C419.236 389.995 408.925 372.17 413.581 354.828C418.236 337.486 436.096 327.195 453.471 331.841L773.396 417.4L773.397 417.4C782.878 419.935 791.791 422.317 799.117 424.931C807.074 427.77 815.847 431.765 823.743 438.861C834.886 448.875 842.567 462.153 845.685 476.791C847.894 487.165 846.973 496.744 845.458 505.042C844.063 512.681 841.674 521.577 839.133 531.039L789.236 716.898C784.58 734.24 766.721 744.531 749.345 739.884C731.97 735.238 721.659 717.412 726.315 700.071L775.927 515.271C778.852 504.377 780.514 498.089 781.373 493.385C781.728 491.439 781.825 490.345 781.851 489.854C781.589 488.975 781.123 488.17 780.492 487.504C780.053 487.281 779.055 486.818 777.189 486.152C772.678 484.543 766.39 482.835 755.476 479.916L601.465 438.729L574.152 540.465C569.497 557.807 551.637 568.098 534.262 563.452C516.887 558.805 506.575 540.98 511.231 523.638L538.544 421.902ZM781.859 489.535C781.859 489.535 781.86 489.541 781.86 489.553C781.859 489.542 781.859 489.535 781.859 489.535Z"
          fill="url(#paint1_radial_444_188)" shape-rendering="crispEdges"/>
    <path fill-rule="evenodd" clip-rule="evenodd"
          d="M313.878 556.361C318.389 557.97 324.677 559.678 335.592 562.597L654.456 647.872C671.831 652.519 682.143 670.344 677.487 687.686C672.831 705.027 654.972 715.319 637.596 710.672L317.671 625.114L317.669 625.113L317.667 625.113C308.187 622.578 299.276 620.196 291.951 617.582C283.993 614.743 275.22 610.749 267.324 603.653C256.181 593.639 248.5 580.361 245.383 565.722C243.174 555.349 244.094 545.769 245.609 537.471C247.004 529.832 249.393 520.937 251.935 511.474L272.158 436.144C276.814 418.802 294.674 408.511 312.049 413.157C329.424 417.804 339.735 435.629 335.08 452.971L315.14 527.243C312.216 538.136 310.554 544.425 309.695 549.129C309.339 551.075 309.242 552.169 309.216 552.659C309.479 553.538 309.944 554.343 310.576 555.009C311.014 555.232 312.012 555.695 313.878 556.361ZM309.208 552.978C309.208 552.978 309.208 552.972 309.207 552.96C309.208 552.972 309.208 552.978 309.208 552.978Z"
          fill="url(#paint2_radial_444_188)" shape-rendering="crispEdges"/>
    <path fill-rule="evenodd" clip-rule="evenodd"
          d="M221.048 7.85219L221.071 7.85832C221.416 7.95064 221.762 8.04317 222.109 8.13585L594.111 107.622C603.593 110.156 612.506 112.539 619.832 115.153C627.79 117.992 636.562 121.986 644.459 129.083C655.602 139.097 663.282 152.374 666.4 167.013C668.609 177.386 667.689 186.966 666.173 195.264C664.778 202.903 662.389 211.799 659.848 221.261L639.681 296.382C635.025 313.724 617.165 324.015 599.79 319.369C582.415 314.722 572.104 296.897 576.759 279.555L596.643 205.493C599.567 194.599 601.229 188.311 602.088 183.607C602.443 181.661 602.541 180.567 602.566 180.076C602.304 179.197 601.838 178.392 601.207 177.726C600.768 177.503 599.771 177.04 597.904 176.374C593.393 174.765 587.106 173.057 576.191 170.138L422.181 128.951L380.658 283.618L380.657 283.619L380.657 283.62L380.657 283.621L380.656 283.623C378.117 293.084 375.73 301.978 373.112 309.289C370.267 317.232 366.265 325.987 359.155 333.868C349.122 344.99 335.819 352.656 321.152 355.767C310.758 357.972 301.16 357.054 292.846 355.541C285.192 354.149 276.28 351.765 266.8 349.229L266.799 349.228L138.604 314.945L138.603 314.945L138.603 314.944L138.603 314.944L138.602 314.944C129.122 312.41 120.209 310.027 112.883 307.413C104.926 304.574 96.1531 300.58 88.2568 293.484C77.1137 283.47 69.433 270.192 66.3154 255.553C64.1062 245.18 65.0267 235.6 66.542 227.302C67.937 219.663 70.326 210.768 72.8673 201.305L106.905 74.5207C107 74.1671 107.094 73.8143 107.189 73.4622L107.189 73.4619C109.728 63.9989 112.116 55.1031 114.735 47.7912C117.58 39.8486 121.581 31.0931 128.691 23.2119C138.725 12.0903 152.028 4.42441 166.695 1.31289C177.088 -0.892038 186.686 0.0266827 195 1.53906C202.655 2.93137 211.567 5.31578 221.048 7.85219ZM359.259 112.123L205.249 70.9359C194.334 68.017 188.034 66.3582 183.321 65.5009C181.371 65.1462 180.275 65.0491 179.783 65.0234C178.903 65.2852 178.096 65.75 177.429 66.3801C177.205 66.8179 176.741 67.8139 176.074 69.6765C174.462 74.1789 172.751 80.4542 169.826 91.3479L136.073 217.074C133.148 227.967 131.486 234.256 130.627 238.96C130.272 240.906 130.175 242 130.149 242.49C130.411 243.369 130.877 244.174 131.508 244.84C131.947 245.063 132.945 245.526 134.811 246.192C139.322 247.802 145.61 249.509 156.524 252.428L282.598 286.144C293.512 289.063 299.813 290.722 304.526 291.579C306.476 291.934 307.572 292.031 308.063 292.057C308.944 291.795 309.75 291.33 310.418 290.7C310.641 290.262 311.105 289.266 311.772 287.404C313.385 282.901 315.096 276.626 318.02 265.732L359.259 112.123ZM310.267 290.977C310.269 290.974 310.271 290.97 310.275 290.965C310.269 290.976 310.265 290.98 310.265 290.98C310.265 290.98 310.266 290.979 310.267 290.977ZM308.383 292.065C308.383 292.065 308.377 292.066 308.365 292.066C308.377 292.065 308.383 292.065 308.383 292.065ZM131.243 244.698C131.232 244.691 131.227 244.688 131.227 244.688C131.227 244.688 131.229 244.689 131.231 244.69C131.233 244.692 131.237 244.694 131.243 244.698ZM130.14 242.791C130.141 242.803 130.141 242.809 130.141 242.809C130.141 242.809 130.14 242.803 130.14 242.791ZM177.581 66.0999C177.581 66.0999 177.578 66.1053 177.572 66.1152C177.578 66.1047 177.581 66.0999 177.581 66.0999ZM179.464 65.015C179.464 65.015 179.47 65.0147 179.482 65.0145C179.47 65.015 179.464 65.015 179.464 65.015Z"
          stroke="url(#paint3_linear_444_188)" stroke-width="2" style="mix-blend-mode:overlay"
          shape-rendering="crispEdges" mask="url(#path-1-outside-1_444_188)"/>
    <path fill-rule="evenodd" clip-rule="evenodd"
          d="M221.048 7.85219L221.071 7.85832C221.416 7.95064 221.762 8.04317 222.109 8.13585L594.111 107.622C603.593 110.156 612.506 112.539 619.832 115.153C627.79 117.992 636.562 121.986 644.459 129.083C655.602 139.097 663.282 152.374 666.4 167.013C668.609 177.386 667.689 186.966 666.173 195.264C664.778 202.903 662.389 211.799 659.848 221.261L639.681 296.382C635.025 313.724 617.165 324.015 599.79 319.369C582.415 314.722 572.104 296.897 576.759 279.555L596.643 205.493C599.567 194.599 601.229 188.311 602.088 183.607C602.443 181.661 602.541 180.567 602.566 180.076C602.304 179.197 601.838 178.392 601.207 177.726C600.768 177.503 599.771 177.04 597.904 176.374C593.393 174.765 587.106 173.057 576.191 170.138L422.181 128.951L380.658 283.618L380.657 283.619L380.657 283.62L380.657 283.621L380.656 283.623C378.117 293.084 375.73 301.978 373.112 309.289C370.267 317.232 366.265 325.987 359.155 333.868C349.122 344.99 335.819 352.656 321.152 355.767C310.758 357.972 301.16 357.054 292.846 355.541C285.192 354.149 276.28 351.765 266.8 349.229L266.799 349.228L138.604 314.945L138.603 314.945L138.603 314.944L138.603 314.944L138.602 314.944C129.122 312.41 120.209 310.027 112.883 307.413C104.926 304.574 96.1531 300.58 88.2568 293.484C77.1137 283.47 69.433 270.192 66.3154 255.553C64.1062 245.18 65.0267 235.6 66.542 227.302C67.937 219.663 70.326 210.768 72.8673 201.305L106.905 74.5207C107 74.1671 107.094 73.8143 107.189 73.4622L107.189 73.4619C109.728 63.9989 112.116 55.1031 114.735 47.7912C117.58 39.8486 121.581 31.0931 128.691 23.2119C138.725 12.0903 152.028 4.42441 166.695 1.31289C177.088 -0.892038 186.686 0.0266827 195 1.53906C202.655 2.93137 211.567 5.31578 221.048 7.85219ZM359.259 112.123L205.249 70.9359C194.334 68.017 188.034 66.3582 183.321 65.5009C181.371 65.1462 180.275 65.0491 179.783 65.0234C178.903 65.2852 178.096 65.75 177.429 66.3801C177.205 66.8179 176.741 67.8139 176.074 69.6765C174.462 74.1789 172.751 80.4542 169.826 91.3479L136.073 217.074C133.148 227.967 131.486 234.256 130.627 238.96C130.272 240.906 130.175 242 130.149 242.49C130.411 243.369 130.877 244.174 131.508 244.84C131.947 245.063 132.945 245.526 134.811 246.192C139.322 247.802 145.61 249.509 156.524 252.428L282.598 286.144C293.512 289.063 299.813 290.722 304.526 291.579C306.476 291.934 307.572 292.031 308.063 292.057C308.944 291.795 309.75 291.33 310.418 290.7C310.641 290.262 311.105 289.266 311.772 287.404C313.385 282.901 315.096 276.626 318.02 265.732L359.259 112.123ZM310.267 290.977C310.269 290.974 310.271 290.97 310.275 290.965C310.269 290.976 310.265 290.98 310.265 290.98C310.265 290.98 310.266 290.979 310.267 290.977ZM308.383 292.065C308.383 292.065 308.377 292.066 308.365 292.066C308.377 292.065 308.383 292.065 308.383 292.065ZM131.243 244.698C131.232 244.691 131.227 244.688 131.227 244.688C131.227 244.688 131.229 244.689 131.231 244.69C131.233 244.692 131.237 244.694 131.243 244.698ZM130.14 242.791C130.141 242.803 130.141 242.809 130.141 242.809C130.141 242.809 130.14 242.803 130.14 242.791ZM177.581 66.0999C177.581 66.0999 177.578 66.1053 177.572 66.1152C177.578 66.1047 177.581 66.0999 177.581 66.0999ZM179.464 65.015C179.464 65.015 179.47 65.0147 179.482 65.0145C179.47 65.015 179.464 65.015 179.464 65.015Z"
          stroke="white" stroke-opacity="0.2" stroke-width="2" shape-rendering="crispEdges"
          mask="url(#path-1-outside-1_444_188)"/>
    <path fill-rule="evenodd" clip-rule="evenodd"
          d="M538.544 421.902L436.611 394.642C419.236 389.995 408.925 372.17 413.581 354.828C418.236 337.486 436.096 327.195 453.471 331.841L773.396 417.4L773.397 417.4C782.878 419.935 791.791 422.317 799.117 424.931C807.074 427.77 815.847 431.765 823.743 438.861C834.886 448.875 842.567 462.153 845.685 476.791C847.894 487.165 846.973 496.744 845.458 505.042C844.063 512.681 841.674 521.577 839.133 531.039L789.236 716.898C784.58 734.24 766.721 744.531 749.345 739.884C731.97 735.238 721.659 717.412 726.315 700.071L775.927 515.271C778.852 504.377 780.514 498.089 781.373 493.385C781.728 491.439 781.825 490.345 781.851 489.854C781.589 488.975 781.123 488.17 780.492 487.504C780.053 487.281 779.055 486.818 777.189 486.152C772.678 484.543 766.39 482.835 755.476 479.916L601.465 438.729L574.152 540.465C569.497 557.807 551.637 568.098 534.262 563.452C516.887 558.805 506.575 540.98 511.231 523.638L538.544 421.902ZM781.859 489.535C781.859 489.535 781.86 489.541 781.86 489.553C781.859 489.542 781.859 489.535 781.859 489.535Z"
          stroke="url(#paint4_linear_444_188)" stroke-width="2" style="mix-blend-mode:overlay"
          shape-rendering="crispEdges" mask="url(#path-1-outside-1_444_188)"/>
    <path fill-rule="evenodd" clip-rule="evenodd"
          d="M538.544 421.902L436.611 394.642C419.236 389.995 408.925 372.17 413.581 354.828C418.236 337.486 436.096 327.195 453.471 331.841L773.396 417.4L773.397 417.4C782.878 419.935 791.791 422.317 799.117 424.931C807.074 427.77 815.847 431.765 823.743 438.861C834.886 448.875 842.567 462.153 845.685 476.791C847.894 487.165 846.973 496.744 845.458 505.042C844.063 512.681 841.674 521.577 839.133 531.039L789.236 716.898C784.58 734.24 766.721 744.531 749.345 739.884C731.97 735.238 721.659 717.412 726.315 700.071L775.927 515.271C778.852 504.377 780.514 498.089 781.373 493.385C781.728 491.439 781.825 490.345 781.851 489.854C781.589 488.975 781.123 488.17 780.492 487.504C780.053 487.281 779.055 486.818 777.189 486.152C772.678 484.543 766.39 482.835 755.476 479.916L601.465 438.729L574.152 540.465C569.497 557.807 551.637 568.098 534.262 563.452C516.887 558.805 506.575 540.98 511.231 523.638L538.544 421.902ZM781.859 489.535C781.859 489.535 781.86 489.541 781.86 489.553C781.859 489.542 781.859 489.535 781.859 489.535Z"
          stroke="white" stroke-opacity="0.2" stroke-width="2" shape-rendering="crispEdges"
          mask="url(#path-1-outside-1_444_188)"/>
    <path fill-rule="evenodd" clip-rule="evenodd"
          d="M313.878 556.361C318.389 557.97 324.677 559.678 335.592 562.597L654.456 647.872C671.831 652.519 682.143 670.344 677.487 687.686C672.831 705.027 654.972 715.319 637.596 710.672L317.671 625.114L317.669 625.113L317.667 625.113C308.187 622.578 299.276 620.196 291.951 617.582C283.993 614.743 275.22 610.749 267.324 603.653C256.181 593.639 248.5 580.361 245.383 565.722C243.174 555.349 244.094 545.769 245.609 537.471C247.004 529.832 249.393 520.937 251.935 511.474L272.158 436.144C276.814 418.802 294.674 408.511 312.049 413.157C329.424 417.804 339.735 435.629 335.08 452.971L315.14 527.243C312.216 538.136 310.554 544.425 309.695 549.129C309.339 551.075 309.242 552.169 309.216 552.659C309.479 553.538 309.944 554.343 310.576 555.009C311.014 555.232 312.012 555.695 313.878 556.361ZM309.208 552.978C309.208 552.978 309.208 552.972 309.207 552.96C309.208 552.972 309.208 552.978 309.208 552.978Z"
          stroke="url(#paint5_linear_444_188)" stroke-width="2" style="mix-blend-mode:overlay"
          shape-rendering="crispEdges" mask="url(#path-1-outside-1_444_188)"/>
    <path fill-rule="evenodd" clip-rule="evenodd"
          d="M313.878 556.361C318.389 557.97 324.677 559.678 335.592 562.597L654.456 647.872C671.831 652.519 682.143 670.344 677.487 687.686C672.831 705.027 654.972 715.319 637.596 710.672L317.671 625.114L317.669 625.113L317.667 625.113C308.187 622.578 299.276 620.196 291.951 617.582C283.993 614.743 275.22 610.749 267.324 603.653C256.181 593.639 248.5 580.361 245.383 565.722C243.174 555.349 244.094 545.769 245.609 537.471C247.004 529.832 249.393 520.937 251.935 511.474L272.158 436.144C276.814 418.802 294.674 408.511 312.049 413.157C329.424 417.804 339.735 435.629 335.08 452.971L315.14 527.243C312.216 538.136 310.554 544.425 309.695 549.129C309.339 551.075 309.242 552.169 309.216 552.659C309.479 553.538 309.944 554.343 310.576 555.009C311.014 555.232 312.012 555.695 313.878 556.361ZM309.208 552.978C309.208 552.978 309.208 552.972 309.207 552.96C309.208 552.972 309.208 552.978 309.208 552.978Z"
          stroke="white" stroke-opacity="0.2" stroke-width="2" shape-rendering="crispEdges"
          mask="url(#path-1-outside-1_444_188)"/>
  </g>
  <defs>
    <filter id="filter0_d_444_188" x="0" y="-21" width="912" height="871" filterUnits="userSpaceOnUse"
            color-interpolation-filters="sRGB">
      <feFlood flood-opacity="0" result="BackgroundImageFix"/>
      <feColorMatrix in="SourceAlpha" type="matrix" values="0 0 0 0 0 0 0 0 0 0 0 0 0 0 0 0 0 0 127 0"
                     result="hardAlpha"/>
      <feOffset dy="44"/>
      <feGaussianBlur stdDeviation="32"/>
      <feComposite in2="hardAlpha" operator="out"/>
      <feColorMatrix type="matrix" values="0 0 0 0 0.01575 0 0 0 0 0 0 0 0 0 0.1125 0 0 0 0.15 0"/>
      <feBlend mode="normal" in2="BackgroundImageFix" result="effect1_dropShadow_444_188"/>
      <feBlend mode="normal" in="SourceGraphic" in2="effect1_dropShadow_444_188" result="shape"/>
    </filter>
    <radialGradient id="paint0_radial_444_188" cx="0" cy="0" r="1" gradientUnits="userSpaceOnUse"
                    gradientTransform="translate(835.253 718.297) rotate(-138.102) scale(1034.82 25264.6)">
      <stop stop-color="#7C4FFF"/>
      <stop offset="1" stop-color="#479EEE"/>
    </radialGradient>
    <radialGradient id="paint1_radial_444_188" cx="0" cy="0" r="1" gradientUnits="userSpaceOnUse"
                    gradientTransform="translate(835.253 718.297) rotate(-138.102) scale(1034.82 25264.6)">
      <stop stop-color="#7C4FFF"/>
      <stop offset="1" stop-color="#479EEE"/>
    </radialGradient>
    <radialGradient id="paint2_radial_444_188" cx="0" cy="0" r="1" gradientUnits="userSpaceOnUse"
                    gradientTransform="translate(835.253 718.297) rotate(-138.102) scale(1034.82 25264.6)">
      <stop stop-color="#7C4FFF"/>
      <stop offset="1" stop-color="#479EEE"/>
    </radialGradient>
    <linearGradient id="paint3_linear_444_188" x1="292.128" y1="19.1651" x2="662.396" y2="793.243"
                    gradientUnits="userSpaceOnUse">
      <stop offset="0.5" stop-color="white"/>
      <stop offset="1" stop-color="white" stop-opacity="0"/>
    </linearGradient>
    <linearGradient id="paint4_linear_444_188" x1="292.128" y1="19.1651" x2="662.396" y2="793.243"
                    gradientUnits="userSpaceOnUse">
      <stop offset="0.5" stop-color="white"/>
      <stop offset="1" stop-color="white" stop-opacity="0"/>
    </linearGradient>
    <linearGradient id="paint5_linear_444_188" x1="292.128" y1="19.1651" x2="662.396" y2="793.243"
                    gradientUnits="userSpaceOnUse">
      <stop offset="0.5" stop-color="white"/>
      <stop offset="1" stop-color="white" stop-opacity="0"/>
    </linearGradient>
  </defs>
</svg>
